<?xml version="1.0" encoding="UTF-8" standalone="no"?>
<!-- Created with Inkscape (http://www.inkscape.org/) -->

<svg
   width="1203.3574"
   height="234.20052"
   id="svg3356"
   version="1.1"
   xmlns="http://www.w3.org/2000/svg"
   xmlns:svg="http://www.w3.org/2000/svg"
   xmlns:rdf="http://www.w3.org/1999/02/22-rdf-syntax-ns#"
   xmlns:cc="http://creativecommons.org/ns#"
   xmlns:dc="http://purl.org/dc/elements/1.1/">
  <defs
     id="defs3358">
    <rect
       x="650.09393"
       y="37.637016"
       width="953.83118"
       height="426.17978"
       id="rect11843" />
    <clipPath
       clipPathUnits="userSpaceOnUse"
       id="clipPath3093">
      <path
         d="m -1.55,596.6021 h 488.799 v 117.059 H -1.55 Z"
         id="path3095" />
    </clipPath>
    <clipPath
       clipPathUnits="userSpaceOnUse"
       id="clipPath3103">
      <path
         d="M 439.827,22.82703 H 921.71704 V 731.48804 H 439.827 Z"
         id="path3105" />
    </clipPath>
    <clipPath
       clipPathUnits="userSpaceOnUse"
       id="clipPath3113">
      <path
         d="M 0,2386.4082 H 1928 V 2835 H 0 Z"
         id="path3115" />
    </clipPath>
  </defs>
  <metadata
     id="metadata3362">
    <rdf:RDF>
      <cc:Work
         rdf:about="">
        <dc:format>image/svg+xml</dc:format>
        <dc:type
           rdf:resource="http://purl.org/dc/dcmitype/StillImage" />
      </cc:Work>
    </rdf:RDF>
  </metadata>
  <g
     id="layer1"
     transform="translate(-678.57007,-375.71211)">
    <g
       transform="matrix(4.5765307,0,0,-4.5765307,-114.60496,3484.8866)"
       id="g3089">
      <g
         id="g3091"
         clip-path="url(#clipPath3093)">
        <g
           id="g3097"
           transform="matrix(1,0,0,-1,-439.827,731.488)">
          <g
             id="g3099"
             style="fill:#ffffff;fill-opacity:1">
            <g
               id="g3101"
               clip-path="url(#clipPath3103)"
               style="fill:#ffffff;fill-opacity:1">
              <g
                 id="g3107"
                 transform="matrix(0.25,0,0,-0.25,439.827,731.488)"
                 style="fill:#ffffff;fill-opacity:1">
                <g
                   id="g3109"
                   style="fill:#ffffff;fill-opacity:1">
                  <g
                     id="g3111"
                     clip-path="url(#clipPath3113)"
                     style="fill:#ffffff;fill-opacity:1" />
                </g>
                <path
                   style="fill:#e51b24;fill-opacity:1;stroke:#e51b24;stroke-width:3.09453;stroke-opacity:1"
                   d="m 969.39522,2664.3644 c -2.55039,-1.5441 -12.99048,-7.119 -23.20027,-12.3888 -29.39017,-15.1695 -39.53625,-22.5926 -48.14612,-35.2245 -1.78883,-2.6246 -3.486,-4.7456 -3.77126,-4.7134 -1.09363,0.1235 1.61487,11.4677 3.87771,16.2415 3.17848,6.7054 7.57684,12.3847 14.3564,18.5371 8.44086,7.66 14.55537,11.2179 47.03171,27.3671 13.61775,6.7714 28.99931,17.7964 34.98281,25.0746 2.0466,2.4895 3.9394,4.5079 4.2059,4.4853 1.0951,-0.093 -0.41,-8.1129 -2.356,-12.5551 -3.9806,-9.0861 -13.78834,-18.8367 -26.98088,-26.8238 z"
                   id="path1323" />
                <path
                   style="fill:#e51b24;fill-opacity:1;stroke:#e51b24;stroke-width:3.09453;stroke-opacity:1"
                   d="m 953.81607,2574.9299 c -2.53429,-1.5704 -12.91607,-7.253 -23.07083,-12.6281 -29.23159,-15.4732 -39.3003,-23.0008 -47.77891,-35.7211 -1.76154,-2.643 -3.43662,-4.7815 -3.72225,-4.7523 -1.0948,0.1122 1.49609,11.4838 3.70935,16.2808 3.10892,6.7381 7.44823,12.4625 14.16374,18.6848 8.36109,7.7469 14.43847,11.368 46.74595,27.8524 13.54696,6.9121 28.8135,18.0958 34.72135,25.4354 2.02078,2.5106 3.89249,4.5486 4.15935,4.5288 1.09585,-0.081 -0.32608,-8.1168 -2.22596,-12.5789 -3.88633,-9.1268 -13.5927,-18.9785 -26.70179,-27.1018 z"
                   id="path1323-3" />
                <path
                   style="fill:#e51b24;fill-opacity:1;stroke:#e51b24;stroke-width:1.44496;stroke-opacity:1"
                   d="m 947.84999,2620.7843 c -1.24214,-0.2699 -5.92469,-1.6213 -10.40568,-3.0031 -12.89924,-3.9778 -18.53078,-4.6284 -26.72373,-3.0872 -1.70229,0.3203 -3.11832,0.5021 -3.14681,0.4042 -0.10911,-0.3754 6.44153,-3.2964 9.37852,-4.1821 4.12559,-1.244 7.89373,-1.7755 12.29948,-1.735 5.48551,0.05 8.3858,0.7453 22.30894,5.3435 5.83812,1.928 14.25258,2.9898 19.13734,2.4147 1.67081,-0.1967 3.06309,-0.2848 3.09372,-0.1958 0.12583,0.3658 -4.43943,2.5563 -7.14694,3.4292 -5.53758,1.7855 -12.3697,2.0077 -18.79484,0.6116 z"
                   id="path1323-3-6" />
              </g>
            </g>
          </g>
          <text
             xml:space="preserve"
             transform="matrix(0.21850613,0,0,0.21850613,618.71287,59.479795)"
             id="text11841"
             style="font-style:normal;font-weight:normal;font-size:74.6667px;line-height:1.25;font-family:sans-serif;letter-spacing:0px;white-space:pre;shape-inside:url(#rect11843);display:inline;fill:#ffffff;fill-opacity:1;stroke:none"><tspan
               x="650.09375"
               y="105.5741"
               id="tspan1608"><tspan
                 style="font-weight:bold;font-family:Raleway;-inkscape-font-specification:'Raleway Bold'"
                 id="tspan1606">Nom Projet</tspan></tspan></text>
          <path
             style="fill:#ffffff;fill-opacity:1;stroke:#ffffff;stroke-width:0.218506;stroke-linecap:butt;stroke-linejoin:miter;stroke-miterlimit:4;stroke-dasharray:none;stroke-opacity:1"
             d="M 755.18232,98.459529 V 78.124828 56.943365"
             id="path35640" />
        </g>
      </g>
    </g>
  </g>
</svg>
